<?xml version="1.0" encoding="utf-8"?>
<!-- Generator: Adobe Illustrator 20.0.0, SVG Export Plug-In . SVG Version: 6.00 Build 0)  -->
<svg version="1.1" id="Layer_1" xmlns="http://www.w3.org/2000/svg" xmlns:xlink="http://www.w3.org/1999/xlink" x="0px" y="0px"
	 viewBox="0 0 546.1 546" style="enable-background:new 0 0 546.1 546;" xml:space="preserve">
<style type="text/css">
	.st0{fill:#FFFFFF;}
</style>
<g>
	<path class="st0" d="M0,0c182,0,364,0,546.1,0c0,181.9,0,363.8,0,546c-181.9,0-364,0-546.1,0C0,364.1,0,182.1,0,0z M222.3,338.5
		c0,4.9,0,9.9,0,14.8c-24.1,0-48.3,0-72.3,0c0,5.3,0,9.7,0,14.7c9.6,0,18.6,0,28.6,0c0,9.9,0,19.1,0,28.3c5.3,0,9.7,0,14.6,0
		c0-9.6,0-18.6,0-28c5,0,9.4,0,14,0c0.3,4.8,0.6,9.2,0.9,13.9c14.9,0,29.1,0,43.3,0c0,9.7,0,19.3,0,29.2c5.7,0,10.2,0,14.6,0
		c0,9.6,0,19.1,0,28.6c-5.7,0-10,0-15,0c0-4.8,0-8.9,0-13.4c-5,0-9.3,0-14,0c-0.3,4.9-0.5,9.2-0.8,13.9c-5.2,0-9.7,0-14.2,0l0.3,0.3
		c0-4.7,0-9.5,0-15.1c-10.6,0-19.8,0-29,0c-0.3-5.1-0.5-9.3-0.7-13.5c-5,0-9.3,0-13.5,0c0,24.4,0,48.1,0,71.8c14.6,0,28.4,0,42.6,0
		c0.3-4.8,0.6-9.2,0.9-13.9c5.2,0,9.7,0,14.2,0l-0.3-0.3c0,4.7,0,9.4,0,14.1c20.2,0,39.1,0,58.3,0c0-5.1,0-9.6,0-14.1
		c4.7,0,9.5,0,14.6,0c0-5.5,0-10.1,0-14.6c4.7,0,9.4,0,14.1,0c0-5.3,0-9.7,0-14.3c-5.1,0-9.6,0-14.1,0c0-9.6,0-19.1,0-29.1
		c-15.3,0-29.5,0-43.7,0c0-9.8,0-19.6,0-29.4c4.7,0,9.4,0,14.3,0c0.3-5.3,0.5-9.7,0.8-14.6c5.3,0,9.7,0,14.2,0c0,4.6,0,9.2,0,14.6
		c5.3,0,10,0,14.6,0c0,4.7,0,9.5,0,14.6c5.5,0,10.1,0,14.6,0c0,9.6,0,19.2,0,29.4c5.5,0,10,0,14.5,0l-0.3-0.3c0,14.4,0,28.8,0,43.2
		c10.5,0,19.7,0,28.9,0c0-4.8,0-8.9,0-13.6c-4.7-0.2-9.1-0.5-13.5-0.7c0-5,0-9.3,0-14c9.9,0,19.3,0,28.6,0l-0.3-0.3
		c0,4.7,0,9.5,0,13.9c10.6,0,19.8,0,29.6,0c0-9.7,0-18.7,0-28c5-0.3,9.4-0.6,14.6-1c0-9.8,0-19.1,0-28.1c5.1,0,9.3,0,14.4,0
		c0,9.7,0,18.9,0,28c15.1,0,29.1,0,43,0c0-9.7,0-18.7,0-28.6c-9.7,0-18.9,0-28.5,0c0-5.5,0-10,0-14.5l-0.3,0.3c4.7,0,9.4,0,14.5,0
		c0-10.7,0-20.1,0-29.4c4.7,0,9.4,0,14.1,0c0-5.3,0-9.7,0-14.3c-5.1,0-9.6,0-14.1,0c0-4.7,0-9.4,0-15.1c-10.3,0-19.5,0-28.7,0
		c-0.2-5.1-0.4-9.3-0.6-13.7c-4.9-0.3-9.3-0.7-14.4-1c0-10,0-19.3,0-28.7c9.6,0,19.2,0,28.9,0c0.3,5.6,0.6,10,0.8,14.2
		c9.9,0,18.9,0,28.1,0c0-9.7,0-18.9,0-28.4c-4.9-0.2-9.3-0.4-14.2-0.6c0-5.1,0-9.2,0-13.7c-5,0-9.3,0-14,0
		c-0.3,4.9-0.5,9.3-0.8,13.3c-5.2,0-9.5,0-13.9,0c-0.2-4.9-0.4-9-0.6-13.3c-9.9,0-19.1,0-28.7,0c0,5.1,0,9.6,0,14.1
		c-4.9,0-9.9,0-14.8,0c0-4.7,0-9.5,0-14.6c-10.4,0-19.8,0-29.2,0c0-14.5,0-28.9,0-43.7c-5.5,0-10,0-14.6,0c0-4.9,0-9.9,0-14.8
		c9.6,0,19.2,0,28.6,0c0-5.4,0-9.7,0-14.7c-4.8,0-8.9,0-14,0c0-9.8,0-19.1,0-28.2c-5.3,0-9.7,0-14,0c-0.3,5-0.6,9.4-0.9,13.4
		c-5.1,0-9.2,0-13.7,0c-0.3-4.9-0.6-9.2-0.8-13.9c-5.2,0-9.7,0-14.2,0c0-4.9,0-9.9,0-14.8c4.7,0,9.4,0,15.1,0c0-10.3,0-19.5,0-28.5
		c5.1,0,9.2,0,14.3,0c0,9.7,0,18.9,0,28c5.3,0,9.7,0,14,0c0-14.5,0-28.3,0-43.1c-14.5,0-28.6,0-42.9,0c-0.3-5.3-0.6-9.7-0.8-13.8
		c-5.2,0-9.5,0-13.9,0c-0.2,4.9-0.4,9-0.7,13.6c-5,0-9.5,0-14,0c-0.2-4.7-0.4-9.4-0.7-14.1c-5.1-0.2-9.2-0.4-13.7-0.6
		c-0.3-5-0.6-9.3-0.9-13.5c-5.1,0-9.4,0-14.4,0c0,4.8,0,9,0,13.3c-9.9,0-19.1,0-28.5,0c-0.3-4.9-0.6-9.3-0.8-13.5
		c-14.8,0-28.6,0-42.8,0c-0.3,4.8-0.7,9.2-1,14.5c-4.9,0-9.3,0-13.6,0c0,5.1,0,9.2,0,13.8c4.8,0.3,9.2,0.6,13.5,0.9
		c0,5,0,9.3,0,14.3c-4.8,0-8.9,0-13.4,0c0,5,0,9.3,0,13.7c9.7,0,18.9,0,28.8,0c0-14.5,0-28.3,0-42.5c5,0,9.3,0,14.6,0
		c0,9.7,0,19,0,28.2c5.3,0.4,9.7,0.7,14,0.9c0.3,5.1,0.5,9.2,0.7,13.4c5,0,9.3,0,14.6,0c0-9.8,0-19,0-29c15.2,0,29.5,0,43.7,0
		c-0.3,4.9-0.6,9.8-1,14.7c-5.1,0.3-9.4,0.6-13.9,0.9c0,5.3,0,9.7,0,14.2c-4.7,0-9.5,0-15.1,0c0,5.4,0,9.8,0,14.7
		c-19.7,0-38.4,0-57.3,0c0,9.9,0,19.1,0,28.7c5.1,0,9.6,0,14.1,0c0,4.9,0,9.9,0,14.8c-24.1,0-48.1,0-72.4,0c0,5.1,0,9.5,0,14.1
		c4.9,0.3,9.3,0.5,14.2,0.8c0,5.2,0,9.7,0,14.2c-4.6,0-9.2,0-14.6,0c0,5.3,0,10,0,14.6c-9.6,0-19.2,0-28.9,0
		c-0.3,5.4-0.6,9.8-0.8,14c-5.1,0-9.2,0-14.3,0c0-9.7,0-18.9,0-28.5c-10.3,0-19.7,0-29,0c0-4.7,0-9.5,0-15.1c20.2,0,39.1,0,57.9,0
		c0-5.1,0-9.2,0-13.7c-24.2,0-47.9,0-71.8,0c0,9.7,0,18.9,0,28.5c5.1,0,9.6,0,14.1,0c0,4.7,0,9.5,0,14.8c-5.5,0-9.6,0-14.2,0
		c0,14.7,0,28.8,0,43.2c4.8,0.3,9.2,0.6,13.4,0.8c0,5.1,0,9.5,0,13.9c-4.8,0.2-9,0.4-13.3,0.6c0,5,0,9.3,0,14.1c9.9,0,19.3,0,28.7,0
		c0,4.7,0,9.5,0,15.1c-10.5,0-19.7,0-28.8,0c0,19.7,0,38.4,0,57.3c4.8,0,9.1,0,14.4,0c0-14.6,0-28.7,0-43.3c10,0,19,0,28.4,0
		c0.3-5,0.5-9.4,0.8-13.7c5,0,9.3,0,14.6,0c0,9.8,0,19,0,28c5.1,0,9.3,0,13.7,0c0.3-4.8,0.6-9.2,0.9-14.2c5.2,0,9.7,0,14.2,0
		c0,4.7,0,9.4,0,14.1c5.3,0,9.6,0,13.8,0c0-4.9,0-9.3,0-13.9c-5.1,0-9.6,0-14.1,0c0-4.9,0-9.9,0-14.8c9.8,0,19.6,0,29.4,0
		c0,4.7,0,9.4,0,14.5c10.4,0,19.8,0,29.1,0c0,4.7,0,9.5,0,14.6C213.3,338.5,217.8,338.5,222.3,338.5z M469.9,455c0,4.7,0,9.4,0,14.1
		c5.3,0,9.6,0,13.8,0c0-4.9,0-9.3,0-13.9c-5.1,0-9.6,0-14.1,0c0-4.7,0-9.4,0-14c-10.2,0-19.4,0-29.2,0c0,4.8,0,8.9,0,13.6
		c-4.9,0.3-9.3,0.5-13.9,0.7c-0.3,5-0.6,9.4-0.9,14.6c-5,0-9.4,0-13.6,0c0,5.1,0,9.2,0,13.6c14.5,0,28.5,0,43.5,0
		c0-9.7,0-18.9,0-28.8C460.9,455,465.4,455,469.9,455z M455.3,207.7c-4.7,0-9.5,0-15.1,0c0-10.6,0-19.8,0-28.8c-5.1,0-9.3,0-13.7,0
		c-0.3,4.8-0.6,9.2-0.9,14.2c-5.1,0-9.7,0-14.2,0c0-4.7,0-9.4,0-14.1c-5.3,0-9.6,0-13.8,0c0,4.9,0,9.3,0,13.9c5.1,0,9.6,0,14.1,0
		c0,4.7,0,9.5,0,15.1c5.4,0,9.7,0,13.9,0c0,5.1,0,9.2,0,14.3c-14.5,0-28.6,0-42.6,0c0,5.3,0,9.6,0,13.7c19.6,0,38.4,0,57.3,0
		c0.2-4.9,0.5-9,0.7-13.5c4.9-0.3,9.3-0.6,14-0.9c0-5.2,0-9.7,0-14.2c4.7,0,9.4,0,14.1,0c0-10.2,0-19.4,0-28.4c-4.9,0-9.3,0-13.9,0
		C455.3,189.1,455.3,198.4,455.3,207.7z M163.3,163.4c0-34.2,0-67.6,0-100.8c-34.1,0-67.5,0-100.8,0c0,34,0,67.2,0,100.8
		C96.2,163.4,129.4,163.4,163.3,163.4z M163.5,382.8c-34.2,0-67.5,0-101,0c0,33.9,0,67.4,0,100.8c34,0,67.4,0,101,0
		C163.5,449.8,163.5,416.6,163.5,382.8z M484,62.5c-34.2,0-67.6,0-100.8,0c0,34.1,0,67.5,0,100.8c34,0,67.2,0,100.8,0
		C484,129.6,484,96.4,484,62.5z M119.6,367.4c0-5,0-9.3,0-13.5c-9.8,0-19,0-28.1,0c0,4.8,0,8.9,0,13.5
		C100.9,367.4,109.9,367.4,119.6,367.4z M208,397.3c0,5.1,0,9.2,0,13.7c9.6,0,18.8,0,28.1,0c0-4.8,0-9.2,0-13.7
		C226.6,397.3,217.6,397.3,208,397.3z M192.3,163.5c0-10.1,0-19.3,0-28.4c-4.8,0-8.9,0-13.4,0c0,9.7,0,18.8,0,28.4
		C183.6,163.5,187.8,163.5,192.3,163.5z M382.6,483.8c5.1,0,9.5,0,13.8,0c0-4.9,0-9.3,0-13.3c-5,0-9.3,0-13.8,0
		C382.6,475.1,382.6,479,382.6,483.8z M339.4,62.2c0,5.3,0,9.6,0,13.8c4.8,0,9,0,13.3,0c0-4.8,0-9.2,0-13.8
		C348.1,62.2,343.9,62.2,339.4,62.2z M483.8,236.5c0-5.1,0-9.5,0-13.8c-4.9,0-9.3,0-13.3,0c0,5,0,9.3,0,13.8
		C475.1,236.5,479.1,236.5,483.8,236.5z"/>
	<path d="M426,280.3c0,9.4,0,18.7,0,28.7c5,0.4,9.4,0.7,14.4,1c0.2,4.4,0.4,8.6,0.6,13.7c9.2,0,18.4,0,28.7,0c0,5.7,0,10.4,0,15.1
		l0.3-0.2c-14.6,0.1-29.3,0.2-43.9,0.3c0-4.7,0-9.4,0-14.1c-5.3,0-9.6,0-13.8,0c0,4.9,0,9.3,0,13.9c5.1,0,9.6,0,14.1,0
		c0,4.7,0,9.4,0,14.8c15.3,0,29.5,0,43.7,0l-0.3-0.2c0,9.4,0,18.7,0,29.4c-5.1,0-9.8,0-14.5,0c0-4.7,0-9.4,0-14.1
		c-10.2,0-19.4,0-28.4,0c0,4.9,0,9.2,0,13.9c10,0,19.3,0,28.6,0c0,4.5,0,9,0,14.5c9.6,0,18.8,0,28.5,0c0,9.9,0,18.9,0,28.6
		c-13.9,0-28,0-43,0c0-9.1,0-18.3,0-28c-5.1,0-9.3,0-14.4,0c0,9,0,18.2,0,28.1c-5.3,0.4-9.6,0.7-14.6,1c0,9.3,0,18.3,0,28
		c-9.8,0-19,0-29.6,0c0-4.5,0-9.2,0-13.9c4.7,0,9.4,0,14.1,0c0-5.3,0-9.6,0-13.8c-4.9,0-9.3,0-13.9,0c0,5.1,0,9.6,0,14.1
		c-9.3,0-18.7,0-28.6,0c0,4.7,0,9,0,14c4.4,0.2,8.8,0.5,13.5,0.7c0,4.7,0,8.8,0,13.6c-9.1,0-18.3,0-28.9,0c0-14.4,0-28.8,0-43.2
		c4.7,0,9.4,0,14.1,0c0-5.3,0-9.6,0-13.8c-4.9,0-9.3,0-13.9,0c0,5.1,0,9.6,0,14.1c-4.5,0-9,0-14.5,0c0-10.2,0-19.8,0-29.4l-0.3,0.2
		c9.6,0,19.1,0,28.6,0c0-5.6,0-9.9,0-14.8c-10,0-19.3,0-28.6,0l0.3,0.3c0-4.7,0-9.4,0-15c10.2,0,19.4,0,28.3,0c0-5.3,0-9.6,0-14.4
		c-19.7,0-38.7,0-57.7,0l0.3,0.3c0-4.9,0-9.9,0-14.8l-0.3,0.3c4.7,0,9.4,0,15.1,0c0-5.6,0-10,0-14.3c5.1,0,9.2,0,13.9,0
		c0.2,4.7,0.4,9.1,0.7,13.6c9.9,0,19.1,0,28.9,0c0-5.1,0-9.6,0-14.1l-0.3,0.3c4.7,0,9.4,0,15.1,0c0,10.3,0,19.5,0,28.5
		c5.1,0,9.3,0,13.7,0c0.3-4.8,0.6-9.2,0.9-13.7c5.1-0.3,9.4-0.6,14.4-0.9c0-9.9,0-18.9,0-28.2c5-0.3,9.4-0.6,13.6-0.9
		c0-5.1,0-9.4,0-13.6c-29.1,0-57.5,0-86.2,0c-0.3,4.8-0.7,9.2-1,14c-14.9,0-29.1,0-43.3,0l0.3,0.3c0-4.7,0-9.4,0-14.3
		c5.2-0.3,9.6-0.6,14.1-0.9c0.3-5,0.5-9.3,0.8-13.8c5.1-0.3,9.4-0.5,14.3-0.8c0-5.3,0-9.8,0-14.2l-0.3,0.3c4.7,0,9.4,0,14.3,0
		c0.3,5.3,0.6,9.7,0.8,13.8c24.6,0,48.3,0,72.5,0c0-5.1,0-9.6,0-14.1l-0.2,0.3c4.9,0,9.9,0,14.8,0l-0.2-0.3c0,4.7,0,9.5,0,14.8
		c5.8,0,10.3,0,14.8,0L426,280.3z M411.1,368.3c-14.5,0-28.5,0-42.7,0c0,14.6,0,28.6,0,42.5c14.6,0,28.7,0,42.7,0
		C411.1,396.3,411.1,382.5,411.1,368.3z"/>
	<path d="M222,440.5c4.5,0,9,0,14.2,0c0.3-4.7,0.5-9,0.8-13.9c4.7,0,9,0,14,0c0,4.5,0,8.6,0,13.4c4.9,0,9.3,0,15,0
		c0-9.4,0-19,0-28.6l-0.3,0.3c14.2,0,28.4,0,43.7,0c0,10,0,19.5,0,29.1l0.3-0.2c-4.7,0-9.5,0-14.8,0c0,5.8,0,10.3,0,14.8l0.3-0.3
		c-4.7,0-9.4,0-14.1,0c0,5.6,0,9.9,0,14.8c5.1,0,9.6,0,14.1,0l-0.3-0.2c0,4.5,0,9,0,14.1c-19.2,0-38.1,0-58.3,0c0-4.6,0-9.4,0-14.1
		c9.5,0,19.1,0,28.7,0c0-5.3,0-9.6,0-13.9c-9.8,0-19,0-28.4,0c0,5.1,0,9.6,0,14.1c-4.5,0-9,0-14.2,0c-0.3,4.7-0.6,9.1-0.9,13.9
		c-14.2,0-28,0-42.6,0c0-23.6,0-47.4,0-71.8c4.2,0,8.5,0,13.5,0c0.2,4.2,0.4,8.4,0.7,13.5c9.2,0,18.4,0,29,0c0,5.6,0,10.4,0,15.1
		c-9.6,0-19.1,0-28.6,0c0,10.3,0,19.5,0,28.6c4.8,0,8.9,0,13.5,0c0.3-4.8,0.5-9.1,0.8-13.8c5-0.3,9.3-0.5,14-0.8
		C222,449.5,222,445,222,440.5z"/>
	<path d="M163.3,163.4c-33.9,0-67.1,0-100.8,0c0-33.6,0-66.8,0-100.8c33.3,0,66.7,0,100.8,0C163.3,95.8,163.3,129.3,163.3,163.4z
		 M148.7,148.9c0-24.5,0-48.2,0-71.7c-24.4,0-48.1,0-71.7,0c0,24.3,0,47.8,0,71.7C101.1,148.9,124.6,148.9,148.7,148.9z"/>
	<path d="M163.5,382.8c0,33.7,0,67,0,100.8c-33.5,0-67,0-101,0c0-33.5,0-66.9,0-100.8C96,382.8,129.3,382.8,163.5,382.8z
		 M148.7,469.3c0-24.5,0-48.2,0-71.7c-24.4,0-48.1,0-71.7,0c0,24.3,0,47.8,0,71.7C101.1,469.3,124.6,469.3,148.7,469.3z"/>
	<path d="M484,62.5c0,33.9,0,67.1,0,100.8c-33.6,0-66.8,0-100.8,0c0-33.3,0-66.7,0-100.8C416.4,62.5,449.8,62.5,484,62.5z
		 M397.6,76.9c0,24.2,0,47.9,0,71.8c24.3,0,48,0,71.6,0c0-24.3,0-48.1,0-71.8C445,76.9,421.5,76.9,397.6,76.9z"/>
	<path d="M295.1,367.7c-4.5,0-9,0-14.2,0c-0.3,4.9-0.5,9.3-0.8,14.6c-4.9,0-9.6,0-14.3,0c0,0,0.2,0.3,0.2,0.3c0-4.7,0-9.4,0-14.1
		c-5.6,0-9.9,0-14.8,0c0,5.1,0,9.6,0,14.1l0.2-0.3c-14.2,0-28.4,0-43.3,0c-0.3-4.7-0.6-9.1-0.9-13.9c-4.6,0-9,0-14,0
		c0,9.4,0,18.4,0,28c-5,0-9.3,0-14.6,0c0-9.2,0-18.4,0-28.3c-9.9,0-18.9,0-28.6,0c0-5,0-9.3,0-14.7c24,0,48.2,0,72.3,0l-0.2-0.3
		c0,4.7,0,9.4,0,14.1c5.6,0,9.9,0,14.8,0c0-5.1,0-9.6,0-14.1l-0.3,0.3c4.7,0,9.5,0,15.1,0c0-10.5,0-19.8,0-29
		c5.1-0.2,9.3-0.4,13.7-0.7c0.3-5,0.6-9.3,0.9-14.1c5.2,0,9.7,0,14.2,0l-0.3-0.3c0,4.7,0,9.4,0,14.3c5.6,0.3,9.9,0.5,14.6,0.8
		c0,5.3,0,9.8,0,14.3l0.3-0.3c-9.6,0-19.1,0-28.6,0c0,5.6,0,9.9,0,14.8c10,0,19.3,0,28.6,0l-0.3-0.3c0,4.9,0,9.9,0,14.8L295.1,367.7
		z"/>
	<path d="M91.2,294.8c-9.4,0-18.7,0-28.7,0c0-4.8,0-9.1,0-14.1c4.3-0.2,8.4-0.4,13.3-0.6c0-4.4,0-8.7,0-13.9
		c-4.2-0.3-8.5-0.5-13.4-0.8c0-14.4,0-28.5,0-43.2c4.6,0,8.7,0,14.2,0c0-5.3,0-10.1,0-14.8l-0.3,0.3c9.4,0,18.7,0,29,0
		c0,9.6,0,18.8,0,28.5c5.1,0,9.2,0,14.3,0c0.2-4.2,0.5-8.5,0.8-14c9.7,0,19.3,0,28.9,0l-0.2-0.3c0,4.9,0,9.9,0,14.8l0.3-0.3
		c-4.7,0-9.5,0-14.6,0c0,10.7,0,20,0,29.4c-4.7,0-9.4,0-15.1,0c0-5.6,0-10,0-14.3c-5.1,0-9.2,0-13.8,0c-0.3,4.8-0.6,9.1-0.8,13.8
		c-4.9,0.3-9.3,0.6-14.3,0.9c0,10.1,0,19.4,0,28.7L91.2,294.8z"/>
	<path d="M164,207.7c0-4.5,0-9,0-14.2c-4.9-0.3-9.3-0.5-14.2-0.8c0-4.6,0-9,0-14.1c24.3,0,48.4,0,72.4,0l-0.2-0.3
		c0,4.7,0,9.4,0,14.3c-5.3,0.3-9.6,0.6-13.8,0.8c0,10,0,19.1,0,28.8c10,0,19.3,0,28.6,0l-0.3-0.3c0,4.7,0,9.4,0,15
		c-10.2,0-19.4,0-28.9,0c0,5.4,0,9.9,0,14.4c-4.7,0-9.4,0-14.4,0c-0.3,5.3-0.5,9.7-0.8,14.6c-5.3,0-9.8,0-14.3,0c0-4.7,0-9.4,0-15
		c-10.2,0-19.4,0-28.9,0c0-5.4,0-9.9,0-14.4l-0.3,0.3c4.7,0,9.5,0,14.8,0c0-5.8,0-10.3,0-14.8l-0.3,0.3c4.7,0,9.5,0,15.1,0
		c0,5.4,0,9.8,0,14c5.1,0,9.2,0,13.5,0c0-9.7,0-18.9,0-28.8c-9.9,0-19.3,0-28.7,0L164,207.7z"/>
	<path d="M353.1,207.7c4.5,0,9,0,14.6,0c0,14.8,0,29.2,0,43.7l0.3-0.2c-4.7,0-9.5,0-15.1,0c0-5.4,0-9.7,0-14c-5.1,0-9.2,0-13.9,0
		c-0.2,4.8-0.5,9.1-0.7,14.4c-9.9,0-19.1,0-28.9,0c0,5.4,0,9.9,0,14.5l0.3-0.3c-4.7,0-9.5,0-15.1,0c0-5.4,0-9.7,0-14.7
		c-10,0-18.9,0-28.9,0c0-9.9,0-19.1,0-29c-10.3,0-19.7,0-29.1,0c0,0,0.3,0.3,0.3,0.3c0-9.6,0-19.2,0-29.4c5.5,0,10.1,0,14.6,0
		c0,4.7,0,9.5,0,14.8c10.4,0,19.8,0,29.1,0l-0.3-0.3c0,9.5,0,19.1,0,28.7c5.5,0,9.8,0,14.4,0c0.3-4.9,0.5-9.3,0.8-14.1
		c5.3,0,9.8,0,14.2,0c0,4.7,0,9.4,0,14.1c5.3,0,9.7,0,14.3,0c0-5.1,0-9.6,0-14.1c9.6,0,19.2,0,29.4,0c0-5.5,0-10,0-14.6L353.1,207.7
		z"/>
	<path d="M295.4,90.5c-14.2,0-28.5,0-43.7,0c0,10,0,19.2,0,29c-5.3,0-9.7,0-14.6,0c-0.2-4.2-0.4-8.4-0.7-13.4
		c-4.3-0.3-8.7-0.6-14-0.9c0-9.2,0-18.5,0-28.2c-5.3,0-9.6,0-14.6,0c0,14.2,0,28.1,0,42.5c-9.8,0-19.1,0-28.8,0c0-4.4,0-8.7,0-13.7
		c4.5,0,8.6,0,13.4,0c0-5,0-9.3,0-14.3c-4.3-0.3-8.7-0.6-13.5-0.9c0-4.5,0-8.7,0-13.8c4.3,0,8.7,0,13.6,0c0.4-5.3,0.7-9.7,1-14.5
		c14.2,0,28,0,42.8,0c0.3,4.2,0.5,8.6,0.8,13.5c9.4,0,18.6,0,28.5,0c0-4.3,0-8.5,0-13.3c5,0,9.3,0,14.4,0c0.3,4.2,0.5,8.6,0.9,13.5
		c4.4,0.2,8.6,0.4,13.7,0.6c0.2,4.7,0.4,9.4,0.7,14.1C295.2,90.8,295.4,90.5,295.4,90.5z"/>
	<path d="M149.4,323.9c-4.5,0-9,0-14.2,0c-0.3,5-0.6,9.4-0.9,14.2c-4.4,0-8.6,0-13.7,0c0-9,0-18.2,0-28c-5.3,0-9.6,0-14.6,0
		c-0.2,4.4-0.5,8.8-0.8,13.7c-9.5,0-18.5,0-28.4,0c0,14.7,0,28.7,0,43.3c-5.3,0-9.6,0-14.4,0c0-18.9,0-37.6,0-57.3
		c9.1,0,18.3,0,28.8,0c0-5.7,0-10.4,0-15.1c0,0-0.2,0.3-0.2,0.3c4.7,0,9.4,0,14.3,0c0.3-5.6,0.6-9.9,0.9-14.8c10.1,0,19.5,0,28.8,0
		c0,9.6,0,19.2,0,29.4c5.5,0,10.1,0,14.6,0l-0.3-0.2c0,4.9,0,9.9,0,14.8C149.2,324.2,149.4,323.9,149.4,323.9z"/>
	<path d="M280.6,120.3c0-4.4,0-8.9,0-14.2c4.4-0.3,8.8-0.6,13.9-0.9c0.3-4.8,0.6-9.7,1-14.7c0,0-0.3,0.3-0.2,0.3c4.5,0,9,0,14,0
		c0.2-4.6,0.4-8.8,0.7-13.6c4.3,0,8.7,0,13.9,0c0.2,4.1,0.5,8.5,0.8,13.8c14.3,0,28.4,0,42.9,0c0,14.8,0,28.6,0,43.1
		c-4.3,0-8.7,0-14,0c0-9.1,0-18.3,0-28c-5.1,0-9.2,0-14.3,0c0,9,0,18.3,0,28.5c-5.6,0-10.4,0-15.1,0l0.2,0.3c0-9.6,0-19.1,0-28.6
		c-5.6,0-9.9,0-14.8,0c0,10,0,19.3,0,28.6l0.3-0.3c-4.7,0-9.4,0-14.3,0c-0.3-5.3-0.5-9.7-0.8-14.6c-5.3,0-9.8,0-14.2,0L280.6,120.3z
		"/>
	<path d="M324,149.4c4.5,0,9,0,14.2,0c0.3,4.7,0.5,9.1,0.8,13.9c4.5,0,8.6,0,13.7,0c0.3-4.1,0.6-8.4,0.9-13.4c4.4,0,8.7,0,14,0
		c0,9.2,0,18.4,0,28.2c5.1,0,9.2,0,14,0c0,5,0,9.3,0,14.7c-9.4,0-19,0-28.6,0l0.2,0.3c0-4.7,0-9.5,0-14c-10.6,0-19.8,0-29,0
		c-0.2,4.9-0.4,9-0.6,13.5c-5,0.3-9.3,0.6-14.1,0.9c0,5.2,0,9.7,0,14.2c-9.8-0.1-19.6-0.2-29.4-0.2c0,0,0.3,0.3,0.3,0.3
		c0-9.8,0-19.6,0-29.4l-0.3,0.3c9.6,0,19.2,0,29.1,0c0-5.8,0-10.3,0-14.8c4.7,0,9.5,0,14.8,0c0-5.6,0-10.1,0-14.6L324,149.4z"/>
	<path d="M222.3,163.7c-4.5,0-9,0-14.1,0c0-9.6,0-18.8,0-28.7c18.9,0,37.6,0,57.3,0c0-5,0-9.3,0-14.7c5.7,0,10.4,0,15.1,0
		c0,0-0.3-0.2-0.3-0.2c0,19.5,0,39,0,58.5c0,0,0.3-0.3,0.3-0.3c-4.9,0.1-9.9,0.2-14.8,0.3c0-9.5,0-19.1,0-28.7c-5.2,0-9.5,0-14.1,0
		c-0.3,4.9-0.5,9.3-0.8,13.9c-5.3,0-9.8,0-14.3,0l0.3,0.3c0-4.7,0-9.4,0-14.1c-5.6,0-9.9,0-14.8,0c0,5.1,0,9.6,0,14.1L222.3,163.7z"
		/>
	<path d="M411.4,193.1c4.5,0,9,0,14.2,0c0.3-5,0.6-9.4,0.9-14.2c4.5,0,8.6,0,13.7,0c0,9,0,18.2,0,28.8c5.6,0,10.4,0,15.1,0l-0.3-0.3
		c0,4.5,0,9,0,14.2c-4.7,0.3-9.1,0.6-14,0.9c-0.2,4.4-0.4,8.6-0.7,13.5c-18.9,0-37.8,0-57.3,0c0-4.1,0-8.4,0-13.7
		c14,0,28.1,0,42.6,0c0-5.1,0-9.2,0-14.3c-4.2,0-8.6,0-13.9,0c0-5.6,0-10.4,0-15.1L411.4,193.1z"/>
	<path d="M411.7,266c0-4.5,0-9,0-14.1c9.6,0,18.8,0,28.7,0c0.2,4.2,0.4,8.4,0.6,13.3c4.3,0,8.7,0,13.9,0c0.2-4.1,0.5-8.4,0.8-13.3
		c4.7,0,9,0,14,0c0,4.4,0,8.6,0,13.7c4.9,0.2,9.3,0.4,14.2,0.6c0,9.5,0,18.7,0,28.4c-9.2,0-18.2,0-28.1,0c-0.3-4.2-0.5-8.6-0.8-14.2
		c-9.7,0-19.3,0-28.9,0c0,0,0.3,0.2,0.3,0.2c0-4.7,0-9.5,0-14.8c-5.8,0-10.3,0-14.8,0L411.7,266z"/>
	<path d="M469.9,455c-4.5,0-9,0-14.4,0c0,9.8,0,19,0,28.8c-15,0-29,0-43.5,0c0-4.4,0-8.5,0-13.6c4.2,0,8.6,0,13.6,0
		c0.3-5.3,0.6-9.6,0.9-14.6c4.6-0.2,9-0.5,13.9-0.7c0-4.6,0-8.8,0-13.6c9.8,0,19,0,29.2,0c0,4.6,0,9.3,0,14L469.9,455z"/>
	<path d="M76.6,207.4c-4.5,0-9,0-14.1,0c0-9.6,0-18.8,0-28.5c23.9,0,47.6,0,71.8,0c0,4.5,0,8.6,0,13.7c-18.8,0-37.8,0-57.9,0
		c0,5.6,0,10.3,0,15.1C76.4,207.7,76.6,207.4,76.6,207.4z"/>
	<path d="M266,411.4c-4.5,0-8.9,0-14.6,0c0-9.8,0-19.5,0-29.2c0,0-0.2,0.3-0.2,0.3c4.9,0,9.9,0,14.8,0c0,0-0.2-0.3-0.2-0.3
		c0,9.8,0,19.6,0,29.4C265.8,411.6,266,411.4,266,411.4z"/>
	<path d="M119.6,367.4c-9.7,0-18.7,0-28.1,0c0-4.5,0-8.7,0-13.5c9,0,18.2,0,28.1,0C119.6,358.1,119.6,362.4,119.6,367.4z"/>
	<path d="M208,397.3c9.6,0,18.6,0,28.1,0c0,4.5,0,8.9,0,13.7c-9.3,0-18.5,0-28.1,0C208,406.5,208,402.4,208,397.3z"/>
	<path d="M192.3,163.5c-4.6,0-8.7,0-13.4,0c0-9.5,0-18.7,0-28.4c4.4,0,8.5,0,13.4,0C192.3,144.2,192.3,153.4,192.3,163.5z"/>
	<path d="M207.7,323.9c-9.4,0-18.7,0-29.1,0c0-5.1,0-9.8,0-14.5l-0.3,0.2c9.8-0.1,19.6-0.2,29.4-0.2c-0.1,4.9-0.2,9.9-0.3,14.8
		L207.7,323.9z"/>
	<path d="M455.3,207.7c0-9.3,0-18.6,0-28.6c4.6,0,8.9,0,13.9,0c0,9,0,18.2,0,28.4c-4.7,0-9.4,0-14.1,0
		C455.1,207.4,455.3,207.7,455.3,207.7z"/>
	<path d="M367.7,251.4c9.4,0,18.7,0,29.2,0c0,5.1,0,9.9,0,14.6c0,0,0.2-0.3,0.2-0.3c-9.6,0-19.2,0-29.1,0c0-5.5,0-10.1,0-14.6
		L367.7,251.4z"/>
	<path d="M178.6,309.4c-9.8,0-19.6,0-29.4,0c0,0,0.3,0.2,0.3,0.2c0-4.7,0-9.4,0-14.8c10.4,0,19.8,0,29.1,0
		c-0.1,4.9-0.2,9.9-0.3,14.8L178.6,309.4z"/>
	<path d="M382.6,483.8c0-4.8,0-8.7,0-13.3c4.4,0,8.8,0,13.8,0c0,4.1,0,8.4,0,13.3C392,483.8,387.7,483.8,382.6,483.8z"/>
	<path d="M339.4,62.2c4.5,0,8.6,0,13.3,0c0,4.6,0,9,0,13.8c-4.3,0-8.5,0-13.3,0C339.4,71.8,339.4,67.5,339.4,62.2z"/>
	<path d="M324.3,396.8c-4.5,0-9,0-14.6,0c0-5.1,0-9.8,0-14.6l-0.3,0.2c4.9,0,9.9,0,14.8,0l-0.3-0.3c0,4.9,0,9.9,0,14.8L324.3,396.8z
		"/>
	<path d="M469.7,455.3c4.5,0,9,0,14.1,0c0,4.6,0,8.9,0,13.9c-4.2,0-8.5,0-13.8,0c0-4.7,0-9.4,0-14.1
		C469.9,455,469.7,455.3,469.7,455.3z"/>
	<path d="M309.4,455.1c0,4.5,0,9,0,14.6c-5.1,0-9.8,0-14.6,0c0,0,0.3,0.2,0.3,0.2c0-4.9,0-9.9,0-14.8l-0.3,0.3c4.9,0,9.9,0,14.8,0
		L309.4,455.1z"/>
	<path d="M324,134.6c0,4.9,0,9.9,0,14.8c0,0,0.2-0.3,0.2-0.3c-4.9,0.1-9.9,0.2-14.8,0.2c0.1-4.9,0.2-9.9,0.3-14.8l-0.3,0.3
		c4.9,0,9.9,0,14.8,0L324,134.6z"/>
	<path d="M309.4,440.8c4.5,0,9,0,14.1,0c0,4.6,0,9,0,14.3c-4.7,0-9.4,0-14.1,0c0,0,0.3,0.2,0.3,0.2c0-4.9,0-9.9,0-14.8L309.4,440.8z
		"/>
	<path d="M483.8,236.5c-4.8,0-8.7,0-13.3,0c0-4.4,0-8.8,0-13.8c4,0,8.4,0,13.3,0C483.8,227,483.8,231.4,483.8,236.5z"/>
	<path d="M149.4,222.3c0-4.6,0-9.2,0-14.6c5.3,0,10,0,14.6,0c0,0-0.3-0.2-0.3-0.2c0,4.9,0,9.9,0,14.8l0.3-0.3c-4.9,0-9.9,0-14.8,0
		L149.4,222.3z"/>
	<path d="M353.1,192.8c0,4.9,0,9.9,0,14.8c0,0,0.2-0.3,0.2-0.3c-4.7,0-9.4,0-14.1,0c0-5.3,0-9.7,0-14.3c5.1,0,9.6,0,14.1,0
		L353.1,192.8z"/>
	<path d="M411.7,192.9c-4.5,0-9,0-14.1,0c0-4.6,0-8.9,0-13.9c4.2,0,8.5,0,13.8,0c0,4.7,0,9.4,0,14.1
		C411.4,193.1,411.7,192.9,411.7,192.9z"/>
	<path d="M149.2,324.2c4.5,0,9,0,14.1,0c0,4.6,0,8.9,0,13.9c-4.2,0-8.5,0-13.8,0c0-4.7,0-9.4,0-14.1
		C149.4,323.9,149.2,324.2,149.2,324.2z"/>
	<path d="M222.3,338.5c-4.5,0-9,0-14.6,0c0-5.1,0-9.8,0-14.6c0,0-0.2,0.3-0.2,0.3c4.7,0,9.5,0,14.6,0c0,5.5,0,10.1,0,14.6
		L222.3,338.5z"/>
	<path d="M222.3,353.4c0-4.9,0-9.9,0-14.8c0,0-0.2,0.3-0.2,0.3c4.7,0,9.5,0,14.6,0c0,5.5,0,10.1,0,14.6l0.3-0.3c-4.9,0-9.9,0-14.8,0
		L222.3,353.4z"/>
	<path d="M469.7,338.8c4.5,0,9,0,14.1,0c0,4.6,0,9,0,14.3c-4.7,0-9.4,0-14.1,0c0,0,0.3,0.2,0.3,0.2c0-4.9,0-9.9,0-14.8L469.7,338.8z
		"/>
	<path d="M309.7,382.2c-4.6,0-9.2,0-14.6,0c0-5.3,0-10,0-14.6c0,0-0.2,0.3-0.2,0.3c4.7,0,9.5,0,14.6,0c0,5.5,0,10.1,0,14.6
		L309.7,382.2z"/>
	<path d="M222.3,178.6c0-4.9,0-9.9,0-14.8c0,0-0.2,0.3-0.2,0.3c4.9,0,9.9,0,14.8,0l-0.3-0.3c0,4.7,0,9.5,0,14.6
		c-5.5,0-10.1,0-14.6,0L222.3,178.6z"/>
	<path class="st0" d="M236.6,353.4c0-4.5,0-9,0-14.6c-5.1,0-9.8,0-14.6,0c0-4.5,0-9,0-14.6c-5.1,0-9.8,0-14.6,0
		c0.1-4.9,0.2-9.9,0.3-14.8c0,0-0.3,0.2-0.3,0.2c4.7,0,9.4,0,14.3,0c0.3-5.6,0.5-9.9,0.8-14.8c5.2,0,9.7,0,14.2,0
		c0,4.7,0,9.4,0,14.1c5.3,0,9.6,0,13.8,0c0-4.9,0-9.3,0-13.9c-5.1,0-9.6,0-14.1,0c0-4.7,0-9.4,0-14.3c-5.3-0.3-9.6-0.6-14.8-0.9
		c0-9.9,0-19.1,0-28.7c-5.4,0-9.9,0-14.3,0l0.3,0.2c0-4.5,0-9,0-14.4c9.5,0,18.7,0,28.9,0c0-5.6,0-10.3,0-15c9.4,0,18.7,0,29.1,0
		c0,9.9,0,19.1,0,29c10,0,18.9,0,28.9,0c0,5,0,9.3,0,14.7c5.7,0,10.4,0,15.1,0c0,4.5,0,8.9,0,14.2c-4.8,0.3-9.2,0.5-14.3,0.8
		c-0.2,4.4-0.5,8.8-0.8,13.8c-4.5,0.3-8.9,0.6-14.1,0.9c0,4.9,0,9.6,0,14.3c-4.5,0-9,0-14.2,0c-0.3,4.7-0.6,9.1-0.9,14.1
		c-4.4,0.2-8.6,0.4-13.7,0.7c0,9.2,0,18.4,0,29C246.1,353.4,241.3,353.4,236.6,353.4z M280,266.3c-9.6,0-18.8,0-28.2,0
		c0,4.8,0,9.1,0,13.5c9.8,0,19,0,28.2,0C280,275,280,270.9,280,266.3z"/>
	<path class="st0" d="M294.9,338.8c0-4.5,0-9,0-14.3c-4.6-0.3-9-0.5-14.6-0.8c0-4.9,0-9.6,0-14.3c14.2,0,28.4,0,43.3,0
		c0.3-4.8,0.6-9.1,1-14c28.7,0,57.1,0,86.2,0c0,4.2,0,8.5,0,13.6c-4.1,0.3-8.5,0.5-13.6,0.9c0,9.3,0,18.3,0,28.2
		c-5,0.3-9.3,0.6-14.4,0.9c-0.3,4.5-0.6,8.9-0.9,13.7c-4.5,0-8.6,0-13.7,0c0-9,0-18.2,0-28.5c-5.7,0-10.4,0-15.1,0
		c0-4.7,0-9.4,0-14.1c-5.3,0-9.6,0-13.8,0c0,4.9,0,9.3,0,13.9c5.1,0,9.6,0,14.1,0c0,4.5,0,9,0,14.1c-9.8,0-19,0-28.9,0
		c-0.2-4.4-0.4-8.8-0.7-13.6c-4.7,0-8.8,0-13.9,0c0,4.3,0,8.6,0,14.3C304.3,338.8,299.6,338.8,294.9,338.8z"/>
	<path class="st0" d="M368,251.1c0,4.5,0,9,0,14.6c9.9,0,19.5,0,29.1,0c0,4.5,0,9,0,14.1c-24.3,0-48,0-72.5,0
		c-0.2-4.2-0.5-8.5-0.8-13.8c-4.9,0-9.6,0-14.3,0c0-4.5,0-9,0-14.5c9.8,0,19,0,28.9,0c0.3-5.3,0.5-9.6,0.7-14.4c4.6,0,8.8,0,13.9,0
		c0,4.3,0,8.6,0,14C358.5,251.1,363.2,251.1,368,251.1z"/>
	<path class="st0" d="M411.1,368.3c0,14.2,0,28,0,42.5c-14,0-28,0-42.7,0c0-13.9,0-28,0-42.5C382.6,368.3,396.6,368.3,411.1,368.3z
		 M383.1,382.5c0,4.6,0,9.2,0,13.8c4.7,0,9,0,13.1,0c0-5,0-9.3,0-13.8C391.7,382.5,387.8,382.5,383.1,382.5z"/>
	<path class="st0" d="M309.4,382.5c0-4.5,0-9,0-14.6c-5.1,0-9.8,0-14.6,0c0-4.9,0-9.9,0-14.8c19,0,38,0,57.7,0c0,4.8,0,9.1,0,14.4
		c-8.9,0-18.1,0-28.3,0c0,5.6,0,10.3,0,15C319.3,382.5,314.4,382.5,309.4,382.5z"/>
	<path class="st0" d="M469.9,338.5c0,4.9,0,9.9,0,14.8c-14.2,0-28.4,0-43.7,0c0-5.4,0-10.1,0-14.8l-0.3,0.3
		C440.6,338.7,455.3,338.6,469.9,338.5z"/>
	<path class="st0" d="M455.4,382.3c-9.3,0-18.6,0-28.6,0c0-4.6,0-8.9,0-13.9c9,0,18.2,0,28.4,0c0,4.7,0,9.4,0,14.1
		C455.1,382.5,455.4,382.3,455.4,382.3z"/>
	<path class="st0" d="M324,397.1c0-4.9,0-9.9,0-14.8c9.3,0,18.7,0,28.6,0c0,4.9,0,9.3,0,14.8C343.1,397.1,333.6,397.1,324,397.1z"/>
	<path class="st0" d="M295.1,353.4c-9.3,0-18.7,0-28.6,0c0-4.9,0-9.2,0-14.8c9.5,0,19.1,0,28.6,0
		C295.1,343.5,295.1,348.4,295.1,353.4z"/>
	<path class="st0" d="M338.8,426.2c0-4.5,0-9,0-14.1c4.6,0,8.9,0,13.9,0c0,4.2,0,8.5,0,13.8c-4.7,0-9.4,0-14.1,0
		C338.5,426,338.8,426.2,338.8,426.2z"/>
	<path class="st0" d="M382.5,440.8c0-4.5,0-9,0-14.1c4.6,0,8.9,0,13.9,0c0,4.2,0,8.5,0,13.8c-4.7,0-9.4,0-14.1,0
		C382.3,440.5,382.5,440.8,382.5,440.8z"/>
	<path class="st0" d="M411.4,265.7c4.5,0,9,0,14.8,0c0,5.4,0,10.1,0,14.8c-4.5,0-9,0-14.8,0C411.4,275.2,411.4,270.4,411.4,265.7z"
		/>
	<path class="st0" d="M426.3,338.5c-4.5,0-9,0-14.1,0c0-4.6,0-8.9,0-13.9c4.2,0,8.5,0,13.8,0c0,4.7,0,9.4,0,14.1
		C426,338.8,426.3,338.5,426.3,338.5z"/>
	<path class="st0" d="M222,440.5c0,4.5,0,9,0,14.3c-4.7,0.3-9.1,0.5-14,0.8c-0.3,4.6-0.5,9-0.8,13.8c-4.6,0-8.7,0-13.5,0
		c0-9.1,0-18.3,0-28.6c9.5,0,19.1,0,28.6,0C222.3,440.7,222,440.5,222,440.5z"/>
	<path class="st0" d="M236.8,469.9c0-4.5,0-9,0-14.1c9.5,0,18.6,0,28.4,0c0,4.3,0,8.6,0,13.9c-9.6,0-19.1,0-28.7,0
		C236.6,469.7,236.8,469.9,236.8,469.9z"/>
	<path class="st0" d="M309.7,440.5c0,4.9,0,9.9,0,14.8c-4.9,0-9.9,0-14.8,0c0-4.5,0-9,0-14.8C300.2,440.5,305,440.5,309.7,440.5z"/>
	<path class="st0" d="M295.1,455.1c0,4.9,0,9.9,0,14.8c-4.5,0-9,0-14.1,0c0-4.9,0-9.2,0-14.8C285.7,455.1,290.4,455.1,295.1,455.1z"
		/>
	<path class="st0" d="M148.7,148.9c-24.2,0-47.7,0-71.7,0c0-23.9,0-47.4,0-71.7c23.6,0,47.3,0,71.7,0
		C148.7,100.7,148.7,124.4,148.7,148.9z M134.1,134.3c0-14.8,0-28.8,0-42.6c-14.7,0-28.7,0-42.6,0c0,14.5,0,28.4,0,42.6
		C105.8,134.3,119.6,134.3,134.1,134.3z"/>
	<path class="st0" d="M148.7,469.3c-24.2,0-47.7,0-71.7,0c0-23.9,0-47.4,0-71.7c23.6,0,47.3,0,71.7,0
		C148.7,421.2,148.7,444.9,148.7,469.3z M134,455c0-14.3,0-28.5,0-42.9c-14.3,0-28.4,0-42.2,0c0,14.7,0,28.7,0,42.9
		C106,455,119.6,455,134,455z"/>
	<path class="st0" d="M397.6,76.9c23.9,0,47.4,0,71.6,0c0,23.7,0,47.4,0,71.8c-23.6,0-47.3,0-71.6,0
		C397.6,124.8,397.6,101.1,397.6,76.9z M411.9,134c14.8,0,28.9,0,42.6,0c0-14.7,0-28.8,0-42.5c-14.6,0-28.4,0-42.6,0
		C411.9,105.8,411.9,119.6,411.9,134z"/>
	<path class="st0" d="M222,353.1c4.9,0,9.9,0,14.8,0c0,4.5,0,9,0,14.1c-4.9,0-9.2,0-14.8,0C222,362.5,222,357.8,222,353.1z"/>
	<path class="st0" d="M266,382.5c-4.9,0-9.9,0-14.8,0c0-4.5,0-9,0-14.1c4.9,0,9.2,0,14.8,0C266,373.1,266,377.8,266,382.5z"/>
	<path class="st0" d="M134.9,280.2c-9.3,0-18.6,0-28.8,0c-0.3,4.9-0.5,9.3-0.9,14.8c-4.9,0-9.6,0-14.3,0c0-9.3,0-18.7,0-28.7
		c5-0.3,9.3-0.6,14.3-0.9c0.3-4.6,0.5-9,0.8-13.8c4.6,0,8.7,0,13.8,0c0,4.3,0,8.6,0,14.3c5.6,0,10.4,0,15.1,0c0,0-0.2-0.3-0.2-0.3
		c0,4.9,0,9.9,0,14.8L134.9,280.2z"/>
	<path class="st0" d="M149.4,236.6c0,4.5,0,9,0,14.4c9.5,0,18.7,0,28.9,0c0,5.6,0,10.3,0,15c0,0,0.3-0.2,0.3-0.2
		c-14.7,0-29.3,0-44,0c0,0,0.2,0.3,0.2,0.3c0-9.4,0-18.7,0-29.4C140,236.6,144.7,236.6,149.4,236.6z"/>
	<path class="st0" d="M149.2,222c4.9,0,9.9,0,14.8,0c0,4.5,0,9,0,14.8c-5.4,0-10.1,0-14.8,0C149.2,231.9,149.2,226.9,149.2,222z"/>
	<path class="st0" d="M222,178.3c4.5,0,9,0,14.6,0c0-5.1,0-9.8,0-14.6c4.5,0,9,0,14.3,0c0.3-4.6,0.5-9,0.8-13.9c4.6,0,8.9,0,14.1,0
		c0,9.6,0,19.2,0,28.7l0.3-0.2c-4.7,0-9.5,0-14.8,0c0,5.8,0,10.3,0,14.8l0.2-0.3c-4.5,0-9,0-14.6,0c0,10.2,0,19.8,0,29.4
		c-9.3,0-18.6,0-28.6,0c0-9.7,0-18.8,0-28.8c4.1-0.2,8.5-0.5,13.8-0.8C222,187.7,222,183,222,178.3z"/>
	<path class="st0" d="M178.3,309.6c0.1-4.9,0.2-9.9,0.3-14.8l-0.3,0.2c4.7,0,9.4,0,14.1,0c0-5.6,0-9.9,0-14.8c-5.1,0-9.6,0-14.1,0
		l0.3,0.3c0-4.9,0-9.9,0-14.8c0,0-0.3,0.2-0.3,0.2c4.5,0,9,0,14.3,0c0.3-4.9,0.5-9.2,0.8-14.6c4.9,0,9.6,0,14.4,0
		c0,0-0.3-0.2-0.3-0.2c0,19.5,0,39,0,58.5c0,0,0.3-0.2,0.3-0.2C197.9,309.5,188.1,309.6,178.3,309.6z"/>
	<path class="st0" d="M163.8,222.2c0-4.9,0-9.9,0-14.8c9.4,0,18.7,0,28.7,0c0,9.9,0,19.1,0,28.8c-4.3,0-8.4,0-13.5,0
		c0-4.2,0-8.6,0-14C173.2,222.2,168.5,222.2,163.8,222.2z"/>
	<path class="st0" d="M353.4,193.1c-4.5,0-9,0-14.1,0c0,4.6,0,9,0,14.3c4.7,0,9.4,0,14.1,0c0,4.5,0,9,0,14.6c-10.2,0-19.8,0-29.4,0
		l0.2,0.3c0-4.7,0-9.5,0-14.8c-5.8,0-10.3,0-14.8,0l0.3,0.2c0-4.5,0-9,0-14.2c4.7-0.3,9.1-0.6,14.1-0.9c0.2-4.5,0.4-8.6,0.6-13.5
		c9.2,0,18.4,0,29,0C353.4,183.6,353.4,188.4,353.4,193.1z"/>
	<path class="st0" d="M265.7,178.5c4.9-0.1,9.9-0.2,14.8-0.3c0,9.8,0,19.6,0,29.4c-9.4,0-18.7,0-29.1,0c0-5.4,0-10.1,0-14.8
		c0,0-0.2,0.3-0.2,0.3c4.7,0,9.5,0,14.8,0c0-5.8,0-10.3,0-14.8L265.7,178.5z"/>
	<path class="st0" d="M280.3,207.4c9.8,0.1,19.6,0.2,29.4,0.2c0,0-0.3-0.2-0.3-0.2c0,4.9,0,9.9,0,14.8l0.2-0.3c-4.5,0-9,0-14.2,0
		c-0.3,4.9-0.5,9.2-0.8,14.1c-4.6,0-8.9,0-14.4,0C280.3,226.5,280.3,217,280.3,207.4z"/>
	<path class="st0" d="M324,222c0,4.5,0,9,0,14.1c-4.6,0-9,0-14.3,0c0-4.7,0-9.4,0-14.1c0,0-0.2,0.3-0.2,0.3c4.9,0,9.9,0,14.8,0
		L324,222z"/>
	<path class="st0" d="M178.6,294.8c-9.4,0-18.7,0-29.1,0c0,5.4,0,10.1,0,14.8c-4.5,0-9,0-14.6,0c0-10.2,0-19.8,0-29.4
		c0,0-0.2,0.3-0.2,0.3c14.7,0,29.3,0,44,0l-0.3-0.3c0,4.9,0,9.9,0,14.8L178.6,294.8z"/>
	<path class="st0" d="M309.7,134.6c-0.1,4.9-0.2,9.9-0.3,14.8l0.3-0.2c-4.7,0-9.4,0-14.1,0c0,5.6,0,9.9,0,14.8c5.1,0,9.6,0,14.1,0
		l-0.3-0.2c0,4.5,0,9,0,14.8c-9.9,0-19.5,0-29.1,0c0-19.5,0-39,0-58.5c4.5,0,9,0,14.2,0c0.3,4.9,0.5,9.2,0.8,14.6
		C300.3,134.6,305,134.6,309.7,134.6z"/>
	<path class="st0" d="M324.3,134.8c-4.9,0-9.9,0-14.8,0c0-9.3,0-18.7,0-28.6c4.9,0,9.3,0,14.8,0
		C324.3,115.7,324.3,125.3,324.3,134.8z"/>
	<path class="st0" d="M309.4,149.4c4.9-0.1,9.9-0.2,14.8-0.2c0,4.5,0,9,0,14.6c-5.4,0-10.1,0-14.8,0c0,0,0.3,0.2,0.3,0.2
		c0-4.9,0-9.9,0-14.8L309.4,149.4z"/>
	<path class="st0" d="M236.9,164c-4.9,0-9.9,0-14.8,0c0-4.5,0-9,0-14.1c4.9,0,9.2,0,14.8,0C236.9,154.6,236.9,159.3,236.9,164z"/>
	<path d="M207.5,309.6c0-19.5,0-39,0-58.5c4.5,0,9,0,14.3,0c0,9.7,0,18.9,0,28.7c5.2,0.3,9.5,0.6,14.8,0.9c0,4.9,0,9.6,0,14.3
		l0.3-0.3c-4.5,0-9,0-14.2,0c-0.3,4.9-0.5,9.3-0.8,14.8C216.9,309.6,212.2,309.6,207.5,309.6z"/>
	<path d="M280,266.3c0,4.6,0,8.7,0,13.5c-9.3,0-18.4,0-28.2,0c0-4.4,0-8.7,0-13.5C261.3,266.3,270.5,266.3,280,266.3z"/>
	<path d="M236.6,295.1c4.5,0,9,0,14.1,0c0,4.6,0,8.9,0,13.9c-4.2,0-8.5,0-13.8,0c0-4.7,0-9.4,0-14.1
		C236.8,294.8,236.6,295.1,236.6,295.1z"/>
	<path d="M353.4,324c-4.5,0-9,0-14.1,0c0-4.6,0-8.9,0-13.9c4.2,0,8.5,0,13.8,0c0,4.7,0,9.4,0,14.1C353.2,324.2,353.4,324,353.4,324z
		"/>
	<path d="M383.1,382.5c4.6,0,8.6,0,13.1,0c0,4.5,0,8.8,0,13.8c-4.1,0-8.5,0-13.1,0C383.1,391.7,383.1,387.1,383.1,382.5z"/>
	<path d="M134.1,134.3c-14.5,0-28.3,0-42.6,0c0-14.2,0-28,0-42.6c13.9,0,27.9,0,42.6,0C134.1,105.5,134.1,119.5,134.1,134.3z"/>
	<path d="M134,455c-14.4,0-28,0-42.2,0c0-14.2,0-28.2,0-42.9c13.9,0,27.9,0,42.2,0C134,426.5,134,440.7,134,455z"/>
	<path d="M411.9,134c0-14.4,0-28.2,0-42.5c14.2,0,28,0,42.6,0c0,13.8,0,27.8,0,42.5C440.8,134,426.7,134,411.9,134z"/>
	<path d="M178.6,280.5c-14.7,0-29.3,0-44,0c0-4.9,0-9.9,0-14.8c14.7,0,29.3,0,44,0C178.6,270.6,178.6,275.6,178.6,280.5z"/>
	<path d="M266,178.3c0,4.5,0,9,0,14.8c-5.4,0-10.1,0-14.8,0c0-4.5,0-9,0-14.8C256.5,178.3,261.3,178.3,266,178.3z"/>
	<path d="M178.3,295.1c0-4.9,0-9.9,0-14.8c4.5,0,9,0,14.1,0c0,4.9,0,9.2,0,14.8C187.7,295.1,183,295.1,178.3,295.1z"/>
	<path d="M324.3,222.2c-4.9,0-9.9,0-14.8,0c0-4.9,0-9.9,0-14.8c4.5,0,9,0,14.8,0C324.3,212.8,324.3,217.5,324.3,222.2z"/>
	<path d="M309.7,149.1c0,4.9,0,9.9,0,14.8c-4.5,0-9,0-14.1,0c0-4.9,0-9.2,0-14.8C300.3,149.1,305,149.1,309.7,149.1z"/>
</g>
</svg>
